# xmcd CD database file
#
# Track frame offsets:
#	182
#	13832
#	25660
#	35785
#	46432
#	58012
#	71182
#	83070
#	92717
#	104577
#	114697
#	126797
#	138892
#	148960
#	160017
#	171470
#	181805
#	193912
#
# Disc length: 2737 seconds
#
# Revision: 0
# Processed by: cddbd v1.4PL0 Copyright (c) Steve Scherf et al.
# Submitted via: CDex 1.40Beta9
#
DISCID=0b0aaf12
DTITLE=Myrna Lorrie - 18 Original Hits
DYEAR=1966
DGENRE=Country
TTITLE0=Your Special Day (Happy Birthday Mom)
TTITLE1=Turn Down the Music
TTITLE2=Tell Me Not To Go
TTITLE3=No Love Like Mine
TTITLE4=The Longest Day This Year
TTITLE5=Just Count The Tears I'm Gone
TTITLE6=You're Free To Return To Your Past
TTITLE7=Bashful Billy
TTITLE8=Go Home Cheater
TTITLE9=Changing of the Seasons
TTITLE10=Are You Mine
TTITLE11=I'm Your Man
TTITLE12=Underway
TTITLE13=You Bet I Kissed Him
TTITLE14=Life Changing Scene
TTITLE15=Tears Amid the Laughter
TTITLE16=Moonshy
TTITLE17=Listen To My Heartstrings
EXTD=YEAR: 1966 ID3G: 2
EXTT0=
EXTT1=
EXTT2=
EXTT3=
EXTT4=
EXTT5=
EXTT6=
EXTT7=
EXTT8=
EXTT9=
EXTT10=
EXTT11=
EXTT12=
EXTT13=
EXTT14=
EXTT15=
EXTT16=
EXTT17=
PLAYORDER=
